<svg xmlns="http://www.w3.org/2000/svg" xmlns:xlink="http://www.w3.org/1999/xlink" width="500" zoomAndPan="magnify" viewBox="0 0 375 374.999991" height="500" preserveAspectRatio="xMidYMid meet" version="1.0"><defs><g/><clipPath id="964eefbe1e"><path d="M 100.566406 137.242188 L 274.566406 137.242188 L 274.566406 237.742188 L 100.566406 237.742188 Z M 100.566406 137.242188 " clip-rule="nonzero"/></clipPath><clipPath id="448da59bb3"><path d="M 150.820312 137.246094 L 224.171875 137.246094 C 251.925781 137.246094 274.425781 159.746094 274.425781 187.5 C 274.425781 215.253906 251.925781 237.753906 224.171875 237.753906 L 150.820312 237.753906 C 123.066406 237.753906 100.566406 215.253906 100.566406 187.5 C 100.566406 159.746094 123.066406 137.246094 150.820312 137.246094 Z M 150.820312 137.246094 " clip-rule="nonzero"/></clipPath></defs><g clip-path="url(#964eefbe1e)"><g clip-path="url(#448da59bb3)"><path stroke-linecap="butt" transform="matrix(0.75, 0, 0, 0.75, 100.565491, 137.246065)" fill="none" stroke-linejoin="miter" d="M 67.006432 0.0000388833 L 164.808522 0.0000388833 C 201.813733 0.0000388833 231.813735 30.000041 231.813735 67.005252 C 231.813735 104.010462 201.813733 134.010464 164.808522 134.010464 L 67.006432 134.010464 C 30.001222 134.010464 0.00121967 104.010462 0.00121967 67.005252 C 0.00121967 30.000041 30.001222 0.0000388833 67.006432 0.0000388833 Z M 67.006432 0.0000388833 " stroke="#ffffff" stroke-width="22" stroke-opacity="1" stroke-miterlimit="4"/></g></g><g fill="#ffffff" fill-opacity="1"><g transform="translate(118.874183, 210.60608)"><g><path d="M 24.4375 -46.625 C 27.738281 -46.625 30.765625 -46.023438 33.515625 -44.828125 C 36.265625 -43.640625 38.628906 -41.96875 40.609375 -39.8125 C 42.585938 -37.65625 44.113281 -35.144531 45.1875 -32.28125 C 46.269531 -29.425781 46.8125 -26.347656 46.8125 -23.046875 C 46.8125 -19.742188 46.269531 -16.660156 45.1875 -13.796875 C 44.113281 -10.941406 42.585938 -8.429688 40.609375 -6.265625 C 38.628906 -4.109375 36.265625 -2.4375 33.515625 -1.25 C 30.765625 -0.0625 27.738281 0.53125 24.4375 0.53125 C 21.132812 0.53125 18.101562 -0.0625 15.34375 -1.25 C 12.59375 -2.4375 10.21875 -4.109375 8.21875 -6.265625 C 6.21875 -8.429688 4.675781 -10.941406 3.59375 -13.796875 C 2.519531 -16.660156 1.984375 -19.742188 1.984375 -23.046875 C 1.984375 -26.347656 2.519531 -29.425781 3.59375 -32.28125 C 4.675781 -35.144531 6.21875 -37.65625 8.21875 -39.8125 C 10.21875 -41.96875 12.59375 -43.640625 15.34375 -44.828125 C 18.101562 -46.023438 21.132812 -46.625 24.4375 -46.625 Z M 24.4375 -8.3125 C 27.25 -8.3125 29.644531 -8.960938 31.625 -10.265625 C 33.601562 -11.566406 35.128906 -13.328125 36.203125 -15.546875 C 37.285156 -17.773438 37.828125 -20.273438 37.828125 -23.046875 C 37.828125 -25.859375 37.285156 -28.375 36.203125 -30.59375 C 35.128906 -32.820312 33.601562 -34.582031 31.625 -35.875 C 29.644531 -37.175781 27.25 -37.828125 24.4375 -37.828125 C 21.613281 -37.828125 19.203125 -37.175781 17.203125 -35.875 C 15.203125 -34.582031 13.660156 -32.820312 12.578125 -30.59375 C 11.503906 -28.375 10.96875 -25.859375 10.96875 -23.046875 C 10.96875 -20.273438 11.503906 -17.773438 12.578125 -15.546875 C 13.660156 -13.328125 15.203125 -11.566406 17.203125 -10.265625 C 19.203125 -8.960938 21.613281 -8.3125 24.4375 -8.3125 Z M 24.4375 -8.3125 "/></g></g></g><g fill="#ffffff" fill-opacity="1"><g transform="translate(154.165586, 220.360562)"><g><path d="M 18.484375 -32.296875 C 22.140625 -32.296875 25.015625 -31.015625 27.109375 -28.453125 C 29.203125 -25.898438 30.25 -22.179688 30.25 -17.296875 L 30.25 0 L 21.453125 0 L 21.453125 -17.625 C 21.453125 -19.957031 21 -21.617188 20.09375 -22.609375 C 19.195312 -23.597656 17.957031 -24.09375 16.375 -24.09375 C 14.789062 -24.09375 13.515625 -23.539062 12.546875 -22.4375 C 11.578125 -21.34375 11.09375 -19.628906 11.09375 -17.296875 L 11.09375 0 L 2.3125 0 L 2.3125 -31.828125 L 11.09375 -31.828125 L 11.09375 -29.046875 C 12.0625 -30.066406 13.160156 -30.863281 14.390625 -31.4375 C 15.628906 -32.007812 16.992188 -32.296875 18.484375 -32.296875 Z M 18.484375 -32.296875 "/></g></g></g><g fill="#ffffff" fill-opacity="1"><g transform="translate(181.371981, 210.60608)"><g><path d="M 16.046875 -32.296875 C 18.378906 -32.296875 20.523438 -31.894531 22.484375 -31.09375 C 24.441406 -30.300781 26.023438 -29.003906 27.234375 -27.203125 C 28.441406 -25.398438 29.046875 -22.957031 29.046875 -19.875 L 29.046875 0 L 20.34375 0 L 20.34375 -2.96875 C 19.769531 -2.394531 18.675781 -1.664062 17.0625 -0.78125 C 15.457031 0.09375 13.289062 0.53125 10.5625 0.53125 C 7.476562 0.53125 5.085938 -0.203125 3.390625 -1.671875 C 1.703125 -3.148438 0.789062 -5.101562 0.65625 -7.53125 C 0.65625 -9.863281 1.148438 -11.734375 2.140625 -13.140625 C 3.128906 -14.546875 4.484375 -15.644531 6.203125 -16.4375 C 7.921875 -17.226562 9.90625 -17.867188 12.15625 -18.359375 C 14.832031 -18.972656 16.785156 -19.398438 18.015625 -19.640625 C 19.253906 -19.878906 19.960938 -20.441406 20.140625 -21.328125 C 20.359375 -22.296875 20.015625 -23.1875 19.109375 -24 C 18.210938 -24.8125 16.992188 -25.175781 15.453125 -25.09375 C 14.085938 -25.050781 12.929688 -24.71875 11.984375 -24.09375 C 11.035156 -23.476562 10.429688 -22.554688 10.171875 -21.328125 L 2.84375 -22.90625 C 3.0625 -24.320312 3.707031 -25.742188 4.78125 -27.171875 C 5.863281 -28.597656 7.347656 -29.804688 9.234375 -30.796875 C 11.128906 -31.796875 13.398438 -32.296875 16.046875 -32.296875 Z M 20.34375 -13.015625 L 20.34375 -14 C 20.34375 -14 19.679688 -13.851562 18.359375 -13.5625 C 17.035156 -13.28125 15.335938 -12.875 13.265625 -12.34375 C 11.640625 -11.90625 10.5625 -11.234375 10.03125 -10.328125 C 9.507812 -9.429688 9.398438 -8.585938 9.703125 -7.796875 C 9.972656 -7.085938 10.546875 -6.613281 11.421875 -6.375 C 12.304688 -6.132812 13.234375 -6.097656 14.203125 -6.265625 C 15.910156 -6.535156 17.328125 -7.285156 18.453125 -8.515625 C 19.578125 -9.742188 20.207031 -11.242188 20.34375 -13.015625 Z M 20.34375 -13.015625 "/></g></g></g><g fill="#ffffff" fill-opacity="1"><g transform="translate(197.658684, 210.60608)"><g><path d="M 31.03125 -46.21875 L 39.8125 -46.21875 L 39.8125 0 L 31.03125 0 L 31.03125 -18.890625 L 12.40625 -18.890625 L 12.40625 0 L 3.625 0 L 3.625 -46.21875 L 12.40625 -46.21875 L 12.40625 -27.265625 L 31.03125 -27.265625 Z M 31.03125 -46.21875 "/></g></g></g><g fill="#ffffff" fill-opacity="1"><g transform="translate(241.487874, 210.60608)"><g><path d="M 6.609375 -8.3125 C 7.878906 -8.3125 8.976562 -7.859375 9.90625 -6.953125 C 10.832031 -6.054688 11.296875 -4.972656 11.296875 -3.703125 C 11.296875 -2.421875 10.832031 -1.328125 9.90625 -0.421875 C 8.976562 0.472656 7.878906 0.921875 6.609375 0.921875 C 5.367188 0.921875 4.285156 0.472656 3.359375 -0.421875 C 2.441406 -1.328125 1.984375 -2.421875 1.984375 -3.703125 C 1.984375 -4.972656 2.441406 -6.054688 3.359375 -6.953125 C 4.285156 -7.859375 5.367188 -8.3125 6.609375 -8.3125 Z M 6.609375 -8.3125 "/></g></g></g></svg>